# AST/ASF file generated using VICON BodyLanguage
# -----------------------------------------------
:version 1.10
:name VICON
:units
  mass 1.0
  length 0.45
  angle deg
:documentation
   .ast/.asf automatically generated from VICON data using
   VICON BodyBuilder and BodyLanguage model FoxedUp or BRILLIANT.MOD
:root
   order TX TY TZ RX RY RZ
   axis XYZ
   position 0 0 0  
   orientation 0 -0 0 
:bonedata
  begin
     id 1 
     name lhipjoint
     direction 0.432694 -0.693742 0.575759 
     length 2.19277 
     axis 0 -0 0  XYZ
  end
  begin
     id 2 
     name lfemur
     direction 0.34202 -0.939693 0  
     length 6.69022  
     axis 0 -0 20  XYZ
    dof rx ry rz
    limits (-160.0 20.0)
           (-70.0 70.0)
           (-60.0 70.0)
  end
  begin
     id 3 
     name ltibia
     direction 0.34202 -0.939693 0   
     length 6.50337   
     axis 0 -0 20   XYZ
    dof rx
    limits (-10.0 170.0)
  end
  begin
     id 4 
     name lfoot
     direction 0.158999 -0.435969 0.885805   
     length 2.70564   
     axis -90 -1.13533e-015 20   XYZ
    dof rx rz
    limits (-45.0 90.0)
           (-70.0 20.0)
  end
  begin
     id 5 
     name ltoes
     direction -0.00592919 0.00964381 0.999936   
     length 1.29929   
     axis -90 -1.13533e-015 20   XYZ
    dof rx
    limits (-90.0 20.0)
  end
  begin
     id 6 
     name rhipjoint
     direction -0.414359 -0.700339 0.581234   
     length 2.17212  
     axis 0 -0 0  XYZ 
  end
  begin
     id 7 
     name rfemur
     direction -0.34202 -0.939693 0   
     length 7.17659   
     axis 0 -0 -20   XYZ
    dof rx ry rz
    limits (-160.0 20.0)
           (-70.0 70.0)
           (-70.0 60.0)
  end
  begin
     id 8 
     name rtibia
     direction -0.34202 -0.939693 0   
     length 6.36669   
     axis 0 -0 -20   XYZ
    dof rx
    limits (-10.0 170.0)
 end
 begin
     id 9 
     name rfoot
     direction -0.137064 -0.37658 0.916188   
     length 2.22351  
     axis -90 1.13533e-015 -20   XYZ
    dof rx rz
    limits (-45.0 90.0)
           (-20.0 70.0)
  end
  begin
     id 10 
     name rtoes
     direction -0.000784077 -0.00289101 0.999996   
     length 1.09522   
     axis -90 1.13533e-015 -20   XYZ
    dof rx
    limits (-90.0 20.0)
  end
  begin
     id 11 
     name lowerback
     direction -0.0176242 0.984912 -0.172157   
     length 1.65301   
     axis 0 -0 0   XYZ
    dof rx ry rz
    limits (-20.0 45.0)
           (-30.0 30.0)
           (-30.0 30.0)
  end
  begin
     id 12 
     name upperback
     direction -0.00218128 0.998776 -0.0494072   
     length 1.67776   
     axis 0 -0 0   XYZ
    dof rx ry rz
    limits (-20.0 45.0)
           (-30.0 30.0)
           (-30.0 30.0)
  end
  begin
     id 13 
     name thorax
     direction 0.00544186 0.999658 0.0255711   
     length 1.72293   
     axis 0 -0 0   XYZ
    dof rx ry rz
    limits (-20.0 45.0)
           (-30.0 30.0)
           (-30.0 30.0)
  end
  begin
     id 14 
     name lowerneck
     direction -0.105325 0.983841 0.144785   
     length 2.14226   
     axis 0 -0 0   XYZ
    dof rx ry rz
    limits (-20.0 45.0)
           (-30.0 30.0)
           (-30.0 30.0)
  end
  begin
     id 15 
     name upperneck
     direction 0.0547957 0.988053 -0.144041   
     length 2.17508   
     axis 0 -0 0   XYZ
    dof rx ry rz
    limits (-20.0 45.0)
           (-30.0 30.0)
           (-30.0 30.0)
  end
  begin
     id 16
     name head
     direction 0.0247488 0.997534 -0.0656813  
     length 2.20048  
     axis 0 -0 0   XYZ
    dof rx ry rz
    limits (-20.0 45.0)
           (-30.0 30.0)
           (-30.0 30.0)
  end
  begin
     id 17 
     name lclavicle
     direction 0.820559 0.567247 -0.0701026  
     length 4.09615  
     axis 0 -0 0   XYZ
    dof ry rz
    limits (-20.0 10.0)
           (0.0 20.0)
  end
  begin
     id 18 
     name lhumerus
     direction 0.999977 -0.0067566 -9.96392e-005   
     length 4.59333   
     axis -180 -30 -90   XYZ
    dof rx ry rz
    limits (-60.0 90.0)
           (-90.0 90.0)
           (-90.0 90.0)
  end
  begin
     id 19
     name lradius
     direction 1 -4.48982e-011 -2.53425e-027   
     length 2.81151   
     axis -180 -30 -90   XYZ
    dof rx
    limits (-10.0 170.0)
  end
  begin
     id 20
     name lwrist
     direction 1 -4.48939e-011 -7.39254e-028   
     length 1.40576   
     axis 2.56395e-016 90 90   XYZ
    dof ry
    limits (-180.0 0.0)
 end
  begin
     id 21 
     name lhand
     direction 1 -4.48939e-011 -1.47851e-027   
     length 0.895651   
     axis 9.43423e-016 90 90   XYZ
    dof rx rz
    limits (-90.0 90.0)
           (-45.0 45.0)
  end
  begin
     id 22 
     name lfingers
     direction 1 -4.48978e-011 -2.95702e-027   
     length 0.722097   
     axis 1.88685e-015 90 90   XYZ
    dof rx
    limits (0.0 90.0)
  end
  begin
     id 23
     name lthumb
     direction 0.707107 -6.34931e-011 0.707107   
     length 1.03679   
     axis -90 45 -9.86935e-015   XYZ
    dof rx rz
    limits (-45.0 45.0)
           (-45.0 45.0)
  end
  begin
     id 24 
     name rclavicle
     direction -0.831414 0.553102 -0.0531864   
     length 4.24872  
     axis 0 -0 0   XYZ 
    dof ry rz
    limits (-10.0 20.0)
           (-20.0 0.0)
  end
  begin
     id 25 
     name rhumerus
     direction -0.999916 -0.000939607 0.0129331  
     length 4.74834   
     axis -180 30 90   XYZ
    dof rx ry rz
    limits (-90.0 60.0)
           (-90.0 90.0)
           (-90.0 90.0)
  end
  begin
     id 26 
     name rradius
     direction -1 -4.48956e-011 -1.31752e-027   
     length 2.79907   
     axis -180 30 90   XYZ
    dof rx
    limits (-10.0 170.0)
  end
  begin
     id 27 
     name rwrist
     direction -1 -4.4897e-011 -7.39254e-028   
     length 1.39954   
     axis 2.56395e-016 -90 -90   XYZ
    dof ry
    limits (-180.0 0.0)
  end
  begin
     id 28
     name rhand
     direction -0.999997 -0.00250697 0.000800838   
     length 0.953304   
     axis 9.43423e-016 -90 -90   XYZ
    dof rx rz
    limits (-90.0 90.0)
           (-45.0 45.0)
  end
  begin
     id 29
     name rfingers
     direction -1 -4.48954e-011 -2.95702e-027   
     length 0.763342   
     axis 1.88685e-015 -90 -90   XYZ
    dof rx
    limits (0.0 90.0)
  end
  begin
     id 30
     name rthumb
     direction -0.709701 -0.00217037 0.7045   
     length 1.10115   
     axis -90 -45 9.86935e-015   XYZ
    dof rx rz
    limits (-45.0 45.0)
           (-45.0 45.0)
  end
:hierarchy
  begin
    root lhipjoint rhipjoint lowerback
    lhipjoint lfemur
    lfemur ltibia
    ltibia lfoot
    lfoot ltoes
    rhipjoint rfemur
    rfemur rtibia
    rtibia rfoot
    rfoot rtoes
    lowerback upperback
    upperback thorax
    thorax lowerneck lclavicle rclavicle
    lowerneck upperneck
    upperneck head
    lclavicle lhumerus
    lhumerus lradius
    lradius lwrist
    lwrist lhand lthumb
    lhand lfingers
    rclavicle rhumerus
    rhumerus rradius
    rradius rwrist
    rwrist rhand rthumb
    rhand rfingers
  end

#!OML:ASF G:\ViconDB\ViconDB\414\test\team2\shane.ASF
:FULLY-SPECIFIED
:DEGREES
115
root 1.52638 16.7759 -5.48203 -8.77684 -3.95775 -6.20006
lowerback 9.25727 4.09491 7.7036
upperback 2.78487 6.17935 1.53954
thorax -1.61999 3.09063 -3.30885
lowerneck -14.0703 -7.09961 -6.37207
upperneck 19.8192 -10.2307 8.18841
head 9.3214 -4.42579 2.56561
rclavicle -1.21004e-013 -2.75317e-014
rhumerus -16.5135 16.1186 -95.5027
rradius 73.917
rwrist 26.2687
rhand -40.492 -18.9629
rfingers 7.12502
rthumb -13.4421 -48.5092
lclavicle -1.21004e-013 -2.75317e-014
lhumerus -51.6782 -10.7328 71.809
lradius 12.1968
lwrist -29.2057
lhand -36.2621 9.06374
lfingers 7.12502
lthumb -9.36272 38.8358
rfemur 19.478 -18.8209 20.3156
rtibia 13.4673
rfoot -20.2525 20.6531
rtoes -4.29592
lfemur -16.5534 12.74 -4.74223
ltibia 46.143
lfoot -26.5147 -13.2354
ltoes -10.0529
116
root 1.52326 16.7757 -5.27782 -8.54211 -4.52002 -6.09822
lowerback 9.25446 4.4566 7.81163
upperback 2.5934 6.67433 1.34661
thorax -1.72763 3.32864 -3.61451
lowerneck -13.8263 -7.28572 -6.27573
upperneck 19.7127 -10.5422 8.29632
head 9.26614 -4.56205 2.55095
rclavicle -1.05142e-013 5.96354e-016
rhumerus -15.327 16.8896 -95.7392
rradius 76.8205
rwrist 26.4188
rhand -40.8513 -19.3898
rfingers 7.12502
rthumb -13.7883 -48.9128
lclavicle -1.05142e-013 5.96354e-016
lhumerus -52.9207 -11.0783 69.9588
lradius 12.5026
lwrist -28.3276
lhand -35.948 8.58416
lfingers 7.12502
lthumb -9.05963 38.3696
rfemur 21.3716 -18.5756 19.8381
rtibia 10.5129
rfoot -18.8536 21.4771
rtoes -4.43576
lfemur -17.422 12.5512 -5.35806
ltibia 43.8782
lfoot -27.0985 -12.9681
ltoes -10.4969
117
root 1.52262 16.7687 -5.07943 -8.27249 -4.83503 -6.47004
lowerback 9.3025 4.67884 8.38161
upperback 2.44204 7.03377 1.32012
thorax -1.79707 3.5 -3.9905
lowerneck -13.7642 -7.49059 -6.41802
upperneck 19.6272 -10.833 8.47066
head 9.26827 -4.69367 2.59452
rclavicle -6.64624e-014 -1.09332e-014
rhumerus -14.0011 17.7711 -95.5654
rradius 79.5742
rwrist 27.0153
rhand -41.2507 -19.6761
rfingers 7.12502
rthumb -14.1732 -49.1726
lclavicle -1.05142e-013 5.96354e-016
lhumerus -52.9207 -11.0783 69.9588
lradius 12.5026
lwrist -28.3276
lhand -35.948 8.58416
lfingers 7.12502
lthumb -9.05963 38.3696
rfemur 23.6539 -17.9647 20.2235
rtibia 6.47725
rfoot -16.9571 21.2708
rtoes -4.71601
lfemur -18.4318 12.1643 -5.41009
ltibia 41.7441
lfoot -27.5647 -13.2376
ltoes -10.6006
118
root 1.52364 16.7546 -4.87823 -8.16486 -5.14649 -6.51284
lowerback 9.40573 4.91273 8.65695
upperback 2.37516 7.37964 1.172
thorax -1.82466 3.66924 -4.33102
lowerneck -13.7552 -7.63151 -6.37571
upperneck 19.5456 -11.0742 8.64539
head 9.26759 -4.78688 2.61367
rclavicle 2.99699e-014 -1.05356e-014
rhumerus -12.5644 18.7376 -95.343
rradius 82.1775
rwrist 27.8993
rhand -41.7219 -21.458
rfingers 7.12502
rthumb -14.6272 -50.9221
lclavicle 2.99699e-014 -1.05356e-014
lhumerus -54.8695 -12.2903 66.9283
lradius 13.3869
lwrist -26.122
lhand -35.4373 8.87174
lfingers 7.12502
lthumb -8.56683 38.6779
rfemur 27.1771 -17.2937 20.2362
rtibia -5.725e-014
rfoot -13.4729 20.9435
rtoes -4.73304
lfemur -19.2562 11.9805 -5.82068
ltibia 39.78
lfoot -28.1898 -13.1729
ltoes -10.8
119
root 1.52198 16.7413 -4.67924 -8.00904 -5.46854 -6.63302
lowerback 9.47503 5.15567 8.92749
upperback 2.31306 7.73484 1.05994
thorax -1.8279 3.84408 -4.62783
lowerneck -13.724 -7.83706 -6.47885
upperneck 19.4014 -11.3824 8.88256
head 9.26023 -4.91802 2.66835
rclavicle -7.56376e-014 5.96354e-015
rhumerus -11.0846 19.3787 -94.883
rradius 84.6054
rwrist 28.5515
rhand -42.0932 -21.7121
rfingers 7.12502
rthumb -14.9849 -51.1499
lclavicle 2.99699e-014 -1.05356e-014
lhumerus -54.8695 -12.2903 66.9283
lradius 13.3869
lwrist -26.122
lhand -35.4373 8.87174
lfingers 7.12502
lthumb -8.56683 38.6779
rfemur 27.7162 -16.6451 20.3807
rtibia -3.18055e-015
rfoot -14.0727 20.5951
rtoes -5.50588
lfemur -20.1279 11.4859 -6.04105
ltibia 38.1018
lfoot -28.7736 -13.1882
ltoes -11.5705
